<?xml version="1.0" encoding="UTF-8"?>
<svg width="988px" height="1024px" viewBox="0 0 988 1024" version="1.1" xmlns="http://www.w3.org/2000/svg" xmlns:xlink="http://www.w3.org/1999/xlink">
    <!-- Generator: Sketch 55.2 (78181) - https://sketchapp.com -->
    <title>ic_launcher_foreground</title>
    <desc>Created with Sketch.</desc>
    <g id="App-Content" stroke="none" stroke-width="1" fill="none" fill-rule="evenodd">
        <g id="ic_launcher_foreground" fill="#FFFFFF" fill-rule="nonzero">
            <g id="ci/logo/launcher-foreground" transform="translate(103.000000, 138.000000)">
                <g id="ci/logo/base-icon" opacity="0.1" transform="translate(84.507812, 87.421875)">
                    <path d="M234.423533,170.649941 C257.426818,193.456011 293.234134,192.630183 315.697813,170.346036 L234.423533,170.649941 Z M347.501371,418.728717 L291.188954,418.728717 L291.188954,373.281742 C291.188954,365.418711 284.761448,359.044465 276.832718,359.044465 C268.903988,359.044465 262.476483,365.418711 262.476483,373.281742 L262.476483,418.728717 L209.021989,418.728717 C201.215577,418.895514 194.974991,425.219167 194.974991,432.962691 C194.974991,440.706214 201.215577,447.029867 209.021989,447.196665 L262.476483,447.196665 L262.476483,496.429235 C262.476483,504.292266 268.903988,510.666512 276.832718,510.666512 C284.761448,510.666512 291.188953,504.292266 291.188954,496.429235 L291.188954,447.196665 L347.494709,447.196665 C352.622508,447.197845 357.361425,444.485955 359.926355,440.082539 C362.491285,435.679121 362.492555,430.253161 359.929686,425.848564 C357.366817,421.443967 352.62917,418.729897 347.501371,418.728717 L347.501371,418.728717 Z M526.731144,468.549277 C525.566425,464.95389 523.006589,461.966106 519.616826,460.245603 C516.227063,458.5251 512.286173,458.213384 508.664271,459.379281 L479.145719,468.820149 L439.214733,356.613227 C437.901497,352.918026 435.10752,349.924864 431.493676,348.341732 C427.88433,346.747783 423.771056,346.704743 420.1286,348.222813 L393.09491,359.467289 C379.889026,337.799928 360.916359,320.161723 338.261418,308.490569 L324.964413,267.470033 C321.177313,255.785396 314.773022,245.102151 306.231357,236.220696 L330.467081,236.220696 C375.774161,236.220696 412.640708,199.666239 412.640708,154.727975 L412.640708,87.8292886 C412.640708,42.891024 375.774161,6.32996029 330.467081,6.32996029 L219.660926,6.32996029 C174.347183,6.32996029 137.480637,42.891024 137.480637,87.8292886 L137.480637,154.727975 C137.480637,186.360496 155.760688,213.824237 182.388008,227.321572 L178.75065,228.477732 C135.615326,242.226118 111.799297,288.221443 125.662557,330.999341 L143.995903,387.565266 C139.481827,401.246916 137.18164,415.551344 137.180855,429.946766 C137.180855,505.348179 199.035912,566.690694 275.060672,566.690694 C351.092095,566.690694 412.947152,505.348179 412.947152,429.946766 C412.947152,414.289065 410.215803,399.265598 405.312699,385.252946 L417.204059,380.311191 L456.728674,491.355347 C459.313149,498.628412 467.268781,502.536646 474.668972,500.168585 L517.491191,486.473051 C521.113763,485.312172 524.1227,482.771265 525.855661,479.409645 C527.588623,476.048023 527.903559,472.141243 526.731144,468.549277 L526.731144,468.549277 Z M166.193108,154.727975 L166.193108,98.5584477 L383.928237,98.5584477 L383.928237,154.727975 C383.928237,183.962292 359.945662,207.752748 330.460419,207.752748 L219.660926,207.752748 C190.175682,207.746141 166.193108,183.962292 166.193108,154.727975 L166.193108,154.727975 Z M152.99603,322.285202 C143.975918,294.45149 159.471325,264.530085 187.537599,255.584714 L230.379804,241.92882 C235.62043,240.249147 241.093828,239.393143 246.60135,239.391535 C269.880495,239.309334 290.530522,254.193372 297.637602,276.177566 L304.159529,296.307952 C294.598085,294.255846 284.843464,293.219368 275.060672,293.216052 C228.547801,293.216052 187.377715,316.193894 162.395867,351.28168 L152.99603,322.285202 L152.99603,322.285202 Z M275.060672,538.216139 C214.86441,538.216139 165.893326,489.650838 165.893326,429.946766 C165.893326,370.249301 214.86441,321.684 275.060672,321.684 C335.256934,321.684 384.234681,370.249301 384.234681,429.946766 C384.234681,489.650838 335.256934,538.216139 275.060672,538.216139 Z M239.040178,145.141762 C231.126165,145.141762 224.71059,138.779347 224.71059,130.930911 C224.71059,123.082475 231.126165,116.72006 239.040178,116.72006 C246.954191,116.72006 253.369766,123.082475 253.369766,130.930911 C253.369766,138.779347 246.954191,145.141762 239.040178,145.141762 Z M311.081167,145.135155 C303.170833,145.135155 296.758241,138.775699 296.758241,130.930911 C296.758241,123.086124 303.170833,116.726667 311.081167,116.726667 C318.991501,116.726667 325.404094,123.086124 325.404094,130.930911 C325.404094,138.775699 318.991501,145.135155 311.081167,145.135155 Z" id="Shape"></path>
                </g>
                <g id="ci/logo/base-icon" opacity="0.896484375" transform="translate(72.851562, 72.851562)">
                    <path d="M246.805057,179.985101 C271.023305,204.038745 308.721853,203.167741 332.371993,179.664571 L246.805057,179.985101 Z M365.855317,441.634669 L306.568652,441.634669 L306.568652,393.701583 C306.568652,385.408416 299.801666,378.685476 291.454164,378.685476 C283.106664,378.685476 276.339677,385.408416 276.339677,393.701583 L276.339677,441.634669 L220.061883,441.634669 C211.84316,441.810591 205.272965,448.480171 205.272965,456.647292 C205.272965,464.814414 211.84316,471.483993 220.061883,471.659915 L276.339677,471.659915 L276.339677,523.585683 C276.339677,531.878849 283.106664,538.60179 291.454164,538.60179 C299.801665,538.60179 306.568651,531.878849 306.568652,523.585683 L306.568652,471.659915 L365.848303,471.659915 C371.246936,471.66116 376.236148,468.80092 378.93655,464.156621 C381.636952,459.512322 381.638289,453.789542 378.940057,449.143998 C376.241825,444.498453 371.25395,441.635914 365.855317,441.634669 L365.855317,441.634669 Z M554.551451,494.180591 C553.325215,490.388524 550.630176,487.237298 547.061377,485.422677 C543.492577,483.608056 539.343541,483.279289 535.530342,484.508964 L504.452712,494.466281 L462.412694,376.121241 C461.030097,372.223899 458.088551,369.067001 454.283835,367.397265 C450.483854,365.716122 446.15333,365.670728 442.318491,367.271841 L413.856965,379.13143 C399.953587,356.278787 379.978843,337.67571 356.127337,325.366102 L342.128026,282.101597 C338.140903,269.777768 331.398358,258.510112 322.405549,249.14281 L347.921329,249.14281 C395.621388,249.14281 434.435112,210.588694 434.435112,163.192146 L434.435112,92.6338637 C434.435112,45.2373158 395.621388,6.67623167 347.921329,6.67623167 L231.262735,6.67623167 C183.555661,6.67623167 144.741938,45.2373158 144.741938,92.6338637 L144.741938,163.192146 C144.741938,196.555079 163.987485,225.521185 192.021177,239.756872 L188.191706,240.976278 C142.778107,255.47675 117.704189,303.988183 132.299664,349.106184 L151.60132,408.766466 C146.848825,423.196552 144.427149,438.283483 144.426322,453.466386 C144.426322,532.992525 209.548372,597.690694 289.588525,597.690694 C369.635692,597.690694 434.757741,532.992525 434.757741,453.466386 C434.757741,436.952153 431.882131,421.106849 426.720059,406.327655 L439.239485,401.115569 L480.851667,518.234235 C483.572646,525.905162 491.94847,530.027191 499.739517,527.529589 L544.823472,513.08486 C548.637378,511.860477 551.805237,509.180573 553.629728,505.63506 C555.45422,502.089546 555.785789,497.969051 554.551451,494.180591 L554.551451,494.180591 Z M174.970913,163.192146 L174.970913,103.949946 L404.206137,103.949946 L404.206137,163.192146 C404.206137,194.025684 378.956877,219.117564 347.914315,219.117564 L231.262735,219.117564 C200.220173,219.110596 174.970913,194.025684 174.970913,163.192146 L174.970913,163.192146 Z M161.076807,339.915351 C151.580279,310.559036 167.894107,279.000823 197.442754,269.566109 L242.547751,255.163189 C248.065171,253.391631 253.827657,252.488801 259.62607,252.487104 C284.134747,252.400407 305.875444,268.098655 313.357898,291.285462 L320.224293,312.517053 C310.157843,310.352689 299.888013,309.259512 289.588525,309.256015 C240.618988,309.256015 197.274426,333.490826 170.973114,370.498039 L161.076807,339.915351 L161.076807,339.915351 Z M289.588525,567.658479 C226.212883,567.658479 174.655297,516.436483 174.655297,453.466386 C174.655297,390.503257 226.212883,339.281261 289.588525,339.281261 C352.964166,339.281261 404.528766,390.503257 404.528766,453.466386 C404.528766,516.436483 352.964166,567.658479 289.588525,567.658479 Z M251.665539,153.081533 C243.333533,153.081533 236.579107,146.371072 236.579107,138.093298 C236.579107,129.815525 243.333533,123.105063 251.665539,123.105063 C259.997546,123.105063 266.751972,129.815525 266.751972,138.093298 C266.751972,146.371072 259.997546,153.081533 251.665539,153.081533 Z M327.511511,153.074565 C319.183377,153.074565 312.432092,146.367224 312.432092,138.093298 C312.432092,129.819373 319.183377,123.112032 327.511511,123.112032 C335.839644,123.112032 342.590929,129.819373 342.590929,138.093298 C342.590929,146.367224 335.839644,153.074565 327.511511,153.074565 Z" id="Shape"></path>
                </g>
            </g>
        </g>
    </g>
</svg>