<?xml version="1.0" encoding="UTF-8"?>
<svg width="1024px" height="1024px" viewBox="0 0 1024 1024" version="1.1" xmlns="http://www.w3.org/2000/svg" xmlns:xlink="http://www.w3.org/1999/xlink">
    <!-- Generator: Sketch 55.2 (78181) - https://sketchapp.com -->
    <title>ic_launcher_foreground</title>
    <desc>Created with Sketch.</desc>
    <g id="App-Content" stroke="none" stroke-width="1" fill="none" fill-rule="evenodd">
        <g id="ci/logo/launcher-foreground" fill="#FFFFFF">
            <rect id="Rectangle" fill-opacity="0.0122377622" fill-rule="evenodd" x="0" y="0" width="1024" height="1024"></rect>
            <g id="ci/logo/base-icon" opacity="0.1" transform="translate(116.000000, 120.000000)" fill-rule="nonzero">
                <path d="M321.91964,234.189255 C353.508658,265.486872 402.680677,264.353558 433.528686,233.772195 L321.91964,234.189255 Z M477.202587,574.636975 L399.872155,574.636975 L399.872155,512.268404 C399.872155,501.477673 391.045651,492.730059 380.157606,492.730059 C369.269561,492.730059 360.443057,501.477673 360.443057,512.268404 L360.443057,574.636975 L287.037239,574.636975 C276.317165,574.865877 267.747346,583.544062 267.747346,594.170787 C267.747346,604.797511 276.317165,613.475695 287.037239,613.704598 L360.443057,613.704598 L360.443057,681.268283 C360.443057,692.059013 369.269561,700.806627 380.157606,700.806627 C391.04565,700.806627 399.872154,692.059013 399.872155,681.268283 L399.872155,613.704598 L477.193439,613.704598 C484.235134,613.706217 490.742802,609.984591 494.265065,603.941619 C497.787328,597.898645 497.789072,590.452398 494.269639,584.407806 C490.750206,578.363214 484.244283,574.638595 477.202587,574.636975 L477.202587,574.636975 Z M723.327979,643.007581 C721.728542,638.073498 718.213274,633.973251 713.558318,631.61214 C708.903361,629.25103 703.491576,628.823252 698.517837,630.423255 L657.981798,643.379309 L603.146992,489.39358 C601.343605,484.322519 597.506805,480.214892 592.544133,478.0423 C587.587636,475.854866 581.939126,475.795801 576.937162,477.879104 L539.813433,493.310316 C521.678592,463.575392 495.624577,439.369828 464.513918,423.35307 L446.253948,367.059064 C441.053352,351.023802 432.258728,336.362788 420.528977,324.174438 L453.810429,324.174438 C516.027897,324.174438 566.654494,274.009399 566.654494,212.338948 L566.654494,120.531396 C566.654494,58.8609457 516.027897,8.68683969 453.810429,8.68683969 L301.647046,8.68683969 C239.420428,8.68683969 188.793832,58.8609457 188.793832,120.531396 L188.793832,212.338948 C188.793832,255.749432 213.89672,293.438945 250.462405,311.961839 L245.467443,313.54848 C186.232313,332.415902 153.527203,395.536995 172.564779,454.242694 L197.740853,531.870213 C191.541945,550.646051 188.383238,570.276549 188.38216,590.031921 C188.38216,693.508081 273.323963,777.690694 377.724162,777.690694 C482.133511,777.690694 567.075314,693.508081 567.075314,590.031921 C567.075314,568.544276 563.324519,547.927015 556.591382,528.696932 L572.921067,521.915178 L627.197827,674.305198 C630.746929,684.286295 641.671918,689.64971 651.834152,686.399933 L710.639312,667.605042 C715.613971,666.011925 719.745961,662.524944 722.125732,657.911667 C724.505504,653.298389 724.937986,647.936969 723.327979,643.007581 L723.327979,643.007581 Z M228.22293,212.338948 L228.22293,135.25542 L527.225396,135.25542 L527.225396,212.338948 C527.225396,252.458288 494.291579,285.106815 453.80128,285.106815 L301.647046,285.106815 C261.156747,285.097749 228.22293,252.458288 228.22293,212.338948 L228.22293,212.338948 Z M210.100182,442.283957 C197.713408,404.08672 218.992313,363.024464 257.534027,350.748399 L316.366632,332.007909 C323.563267,329.70283 331.079553,328.528104 338.642699,328.525897 C370.610539,328.413091 398.967971,348.839008 408.727693,379.008734 L417.683861,406.634411 C404.553708,403.81823 391.158278,402.395833 377.724162,402.391282 C313.850854,402.391282 257.314468,433.924628 223.008409,482.076901 L210.100182,442.283957 L210.100182,442.283957 Z M377.724162,738.614004 C295.060282,738.614004 227.811257,671.966037 227.811257,590.031921 C227.811257,508.106872 295.060282,441.458905 377.724162,441.458905 C460.388043,441.458905 527.646217,508.106872 527.646217,590.031921 C527.646217,671.966037 460.388043,738.614004 377.724162,738.614004 Z M328.259399,199.183432 C317.391564,199.183432 308.581443,190.452054 308.581443,179.681354 C308.581443,168.910653 317.391564,160.179275 328.259399,160.179275 C339.127234,160.179275 347.937355,168.910653 347.937355,179.681354 C347.937355,190.452054 339.127234,199.183432 328.259399,199.183432 Z M427.188927,199.174366 C416.326144,199.174366 407.520119,190.447047 407.520119,179.681354 C407.520119,168.915661 416.326144,160.188342 427.188927,160.188342 C438.051709,160.188342 446.857734,168.915661 446.857734,179.681354 C446.857734,190.447047 438.051709,199.174366 427.188927,199.174366 Z" id="Shape"></path>
            </g>
            <g id="ci/logo/base-icon" opacity="0.896484375" transform="translate(100.000000, 100.000000)" fill-rule="nonzero">
                <path d="M338.841057,247.138025 C372.090524,280.166147 423.847226,278.970169 456.316733,246.697905 L338.841057,247.138025 Z M502.286313,606.409748 L420.891076,606.409748 L420.891076,540.5927 C420.891076,529.205329 411.600615,519.974042 400.140249,519.974042 C388.679885,519.974042 379.389423,529.205329 379.389423,540.5927 L379.389423,606.409748 L302.125093,606.409748 C290.841529,606.651307 281.821245,615.809325 281.821245,627.023621 C281.821245,638.237918 290.841529,647.395935 302.125093,647.637494 L379.389423,647.637494 L379.389423,718.936905 C379.389423,730.324274 388.679885,739.555561 400.140249,739.555561 C411.600613,739.555561 420.891075,730.324274 420.891076,718.936905 L420.891076,647.637494 L502.276683,647.637494 C509.68852,647.639203 516.538257,643.711801 520.245665,637.334701 C523.953072,630.957601 523.954908,623.099636 520.250479,616.720827 C516.54605,610.342018 509.698149,606.411457 502.286313,606.409748 L502.286313,606.409748 Z M761.349066,678.560695 C759.665555,673.353798 755.96551,669.02684 751.065871,666.535179 C746.16623,664.043518 740.469979,663.592087 735.234801,665.280558 L692.568021,678.952976 L634.850873,516.453084 C632.952692,511.101634 628.914214,506.766889 623.690684,504.47417 C618.473652,502.165788 612.528234,502.103457 607.263346,504.30195 L568.188241,520.586384 C549.100159,489.207358 521.676638,463.663423 488.930676,446.761067 L469.710886,387.354459 C464.236925,370.432577 454.98002,354.960928 442.633705,342.09866 L477.664567,342.09866 C543.152441,342.09866 596.440179,289.1599 596.440179,224.079573 L596.440179,127.195807 C596.440179,62.1154796 543.152441,9.16715161 477.664567,9.16715161 L317.502852,9.16715161 C252.005348,9.16715161 198.717611,62.1154796 198.717611,127.195807 L198.717611,224.079573 C198.717611,269.890306 225.140009,309.663743 263.627736,329.210803 L258.370218,330.885173 C196.021448,350.79581 161.597223,417.406989 181.635492,479.358638 L208.134923,561.278331 C201.610176,581.09232 198.285434,601.808226 198.284299,622.65591 C198.284299,731.853464 287.690992,820.690694 397.578894,820.690694 C507.476427,820.690694 596.883119,731.853464 596.883119,622.65591 C596.883119,599.980172 592.935166,578.222943 585.848108,557.929593 L603.036149,550.772862 L660.165918,711.588817 C663.901576,722.121788 675.400827,727.781757 686.097229,724.352293 L747.99343,704.518197 C753.229577,702.836993 757.578761,699.15721 760.083623,694.288857 C762.588486,689.420502 763.043701,683.762638 761.349066,678.560695 L761.349066,678.560695 Z M240.219264,224.079573 L240.219264,142.733949 L554.938526,142.733949 L554.938526,224.079573 C554.938526,266.417187 520.273572,300.870914 477.654937,300.870914 L317.502852,300.870914 C274.884217,300.861346 240.219264,266.417187 240.219264,224.079573 L240.219264,224.079573 Z M221.14391,466.73868 C208.106036,426.429445 230.503447,383.096778 271.071072,370.141946 L332.99616,350.365258 C340.571079,347.932728 348.482453,346.693049 356.443149,346.69072 C390.09135,346.571676 419.939364,368.126982 430.212097,399.964849 L439.639038,429.118003 C425.81871,426.14611 411.719162,424.645065 397.578894,424.640263 C330.348143,424.640263 270.839972,457.917148 234.730646,508.731851 L221.14391,466.73868 L221.14391,466.73868 Z M397.578894,779.45338 C310.569861,779.45338 239.785952,709.120319 239.785952,622.65591 C239.785952,536.201069 310.569861,465.868009 397.578894,465.868009 C484.587927,465.868009 555.381467,536.201069 555.381467,622.65591 C555.381467,709.120319 484.587927,779.45338 397.578894,779.45338 Z M345.51406,210.196664 C334.074967,210.196664 324.80175,200.982511 324.80175,189.616278 C324.80175,178.250045 334.074967,169.035893 345.51406,169.035893 C356.953153,169.035893 366.22637,178.250045 366.22637,189.616278 C366.22637,200.982511 356.953153,210.196664 345.51406,210.196664 Z M449.643729,210.187096 C438.209954,210.187096 428.941049,200.977227 428.941049,189.616278 C428.941049,178.255329 438.209954,169.045461 449.643729,169.045461 C461.077504,169.045461 470.34641,178.255329 470.34641,189.616278 C470.34641,200.977227 461.077504,210.187096 449.643729,210.187096 Z" id="Shape"></path>
            </g>
        </g>
    </g>
</svg>